<?xml version="1.0" encoding="UTF-8" standalone="no"?>
<!-- Created with Inkscape (http://www.inkscape.org/) -->

<svg
   width="1150.8596"
   height="272.46997"
   viewBox="0 0 304.49857 72.091085"
   version="1.1"
   id="svg1"
   xml:space="preserve"
   xmlns="http://www.w3.org/2000/svg"
   xmlns:svg="http://www.w3.org/2000/svg"><defs
     id="defs1" /><g
     id="slides"
     transform="matrix(0.92919712,0.3272761,0,1.391717,-25.032863,-119.83905)"
     style="display:inline"><path
       id="back"
       style="fill:#d8d0c2;fill-opacity:1;stroke:#000000;stroke-width:0"
       d="m -46.347321,-75.211562 c 1.785529,-0.363523 3.120874,-1.936419 3.120874,-3.832427 v -5.600181 l -35.458943,6e-6 c -2.166867,0 -3.911732,-1.743968 -3.911732,-3.910835 v -19.124951 l -7.899405,-1.4e-4 c -2.166867,0 -3.911077,1.74441 -3.911077,3.91128 v 24.725126 c 0,2.166866 1.74421,3.910989 3.911077,3.910989 l 43.359004,-1.4e-5 c 0.270858,0 0.535127,-0.02692 0.790202,-0.07885 z"
       transform="scale(-1)" /><path
       id="front"
       style="fill:#222b36;stroke:#000000;stroke-width:0"
       transform="scale(-1)"
       d="m -74.210423,-120.34911 h 43.358796 c 2.166867,0 3.911312,1.74444 3.911312,3.91131 v 24.72478 c 0,2.166867 -1.744445,3.911312 -3.911312,3.911312 h -43.358796 c -2.166867,0 -3.911312,-1.744445 -3.911312,-3.911312 v -24.72478 c 0,-2.16687 1.744445,-3.91131 3.911312,-3.91131 z" /></g><g
     id="vector"
     style="display:inline"
     transform="translate(-17.444866,-61.819384)"><path
       id="deck"
       style="display:inline;fill:#1f2933;stroke:#000000;stroke-width:0"
       d="m 239.50927,-173.88081 -3.44961,9.5189 44.97752,39.35954 6.21343,-7.10031 z m -113.87342,130.197763 47.50062,41.5674855 12.15086,-13.8852155 c 5.4002,-6.171001 8.98753,-11.161851 10.76258,-14.973057 1.77007,-3.899352 2.68806,-7.622061 2.75375,-11.16887 0.0278,-5.004887 -0.87228,-9.606571 -2.70012,-13.804527 -2.08018,-4.754088 -5.42172,-9.145521 -10.02533,-13.17411 -3.44108,-3.011271 -7.2568,-5.218541 -11.44746,-6.622592 -4.14911,-1.451529 -8.36847,-1.791538 -12.65769,-1.018678 -2.97851,0.494879 -5.62178,1.4511 -7.92944,2.868339 -2.77948,1.674908 -6.12137,4.743776 -10.02613,9.205875 l -4.23689,4.841645 z m 15.84512,-13.040707 c 7.0618,-8.069761 13.58186,-12.423174 19.55874,-13.060295 5.97191,-0.725277 12.63125,2.127211 19.97843,8.55668 4.55711,3.987896 7.8221,8.185458 9.79439,12.593657 2.22465,4.964324 2.64201,10.023634 1.25201,15.177626 -0.5803,2.258264 -1.50241,4.343375 -2.76535,6.255733 -1.26294,1.912359 -3.07824,4.221489 -5.44601,6.927231 -0.0416,0.04749 -1.12394,1.237746 -3.24745,3.570512 -2.17002,2.292068 -3.87832,4.150174 -5.12451,5.574247 l -41.57204,-36.37942 c 0.2077,-0.237344 1.30407,-1.583466 3.28807,-4.038314 1.984,-2.454851 3.41138,-4.180795 4.28372,-5.177657 z m 129.86517,-126.732556 1e-5,26.28455 7.3e-4,-5e-5 -0.005,8.58887 14.03913,0.008 10.07503,0.006 6.27659,0.005 7.53282,-8.60802 -13.80438,-0.008 -10.07542,-0.006 -10.99756,-0.006 -3e-5,-21.4523 -4e-5,-7.3e-4 c -6.8e-4,-0.006 -7.4e-4,-0.008 -5.4e-4,-0.0135 3.1e-4,-0.008 9.6e-4,-0.0246 -0.01,-0.41462 -0.0112,-0.39007 -0.0343,-1.15349 -0.30383,-1.80133 -0.26948,-0.64784 -0.78543,-1.18036 -1.22799,-1.57863 -0.44255,-0.39826 -0.81161,-0.66227 -1.06001,-0.81088 -0.24142,-0.14443 -0.36886,-0.17983 -0.43945,-0.19229 z m -73.07405,85.92196 c -4.36979,4.993506 -6.171,10.333461 -5.40391,16.020176 0.69838,5.303022 3.54419,10.139407 8.53769,14.509192 5.22257,4.570232 10.64874,6.689417 16.27817,6.357565 5.62942,-0.331851 10.56857,-2.925818 14.81809,-7.781888 1.88422,-2.153165 3.34476,-4.515037 4.38144,-7.0863 0.99087,-2.611357 1.62676,-5.371721 1.90753,-8.280906 l -3.51325,-3.195966 c 0.12586,2.536968 -0.026,4.790716 -0.45567,6.760704 -0.62437,2.932067 -1.85869,5.451936 -3.70282,7.559294 -3.44772,3.939827 -7.51363,5.720152 -12.1981,5.341938 -4.20915,-0.366732 -8.37538,-2.354151 -12.49847,-5.962238 l 8.47889,-9.689123 12.41346,-13.769405 c -5.54325,-4.850863 -11.00638,-7.204953 -16.38954,-7.062073 -4.86776,0.10855 -9.08552,2.20176 -12.65351,6.27903 z m 34.34633,-39.10673 c -4.97872,5.68936 -7.53801,11.61767 -7.67734,17.78554 -0.13934,6.16787 2.40277,11.53712 7.62533,16.10735 5.03932,4.409878 10.50026,6.349964 16.38373,5.820251 6.23989,-0.567246 12.00092,-3.868921 17.2827,-9.904601 3.67992,-4.20518 5.8466,-8.99197 6.49995,-14.36061 l -2.83622,-3.13706 -0.59616,0.26457 c -0.0901,3.15345 -0.37654,5.6539 -0.8608,7.50145 -0.64734,2.40369 -1.85886,4.61956 -3.63389,6.64795 -3.50675,4.00728 -7.76146,6.04982 -12.76395,6.12745 -5.00501,-0.0119 -9.70631,-1.9422 -14.10426,-5.79082 -3.84821,-3.36754 -6.17021,-7.27741 -6.9657,-11.72994 -0.85137,-4.85087 0.498,-9.30444 4.04805,-13.36121 1.2122,-1.38522 2.65468,-2.52575 4.32753,-3.42053 1.62704,-0.93487 3.2439,-1.44167 4.85031,-1.52099 0.57792,-0.10577 1.24718,-0.13124 2.00836,-0.0767 0.71536,0.0145 1.38661,0.0332 2.01287,0.0571 l 0.51898,-0.59305 -3.04157,-5.67555 c -2.56642,0.89904 -4.87843,2.10809 -6.93588,3.62724 -2.10326,1.47907 -4.15055,3.3564 -6.14204,5.63214 z m -32.21601,40.970962 c 2.7662,-3.161029 6.00745,-4.369042 9.72409,-3.624372 2.97216,0.578559 6.22193,2.410961 9.74946,5.497885 l -15.99571,18.278863 c -3.20685,-2.806296 -5.23138,-5.993156 -6.07303,-9.560972 -0.95615,-3.991608 -0.0908,-7.522004 2.59519,-10.591404 z"
       transform="rotate(48.81104)" /></g></svg>
