<?xml version="1.0" encoding="UTF-8" standalone="no"?>
<!-- Created with Inkscape (http://www.inkscape.org/) -->

<svg
   width="48"
   height="48"
   viewBox="0 0 32 32"
   version="1.1"
   id="svg1"
   xml:space="preserve"
   sodipodi:docname="favicon.svg"
   inkscape:version="1.4.2 (f4327f4, 2025-05-13)"
   xmlns:inkscape="http://www.inkscape.org/namespaces/inkscape"
   xmlns:sodipodi="http://sodipodi.sourceforge.net/DTD/sodipodi-0.dtd"
   xmlns="http://www.w3.org/2000/svg"
   xmlns:svg="http://www.w3.org/2000/svg"><sodipodi:namedview
     id="namedview1"
     pagecolor="#505050"
     bordercolor="#eeeeee"
     borderopacity="1"
     inkscape:showpageshadow="0"
     inkscape:pageopacity="0"
     inkscape:pagecheckerboard="0"
     inkscape:deskcolor="#505050"
     inkscape:zoom="8"
     inkscape:cx="20.5"
     inkscape:cy="24.6875"
     inkscape:window-width="1600"
     inkscape:window-height="837"
     inkscape:window-x="-8"
     inkscape:window-y="-8"
     inkscape:window-maximized="1"
     inkscape:current-layer="svg1" /><defs
     id="defs1" /><g
     id="slides"
     transform="matrix(0.41245471,0.14527227,0,0.61775938,-9.0252604,-53.194505)"
     style="display:inline"><path
       id="back"
       style="fill:#d8d0c2;fill-opacity:1;stroke:#000000;stroke-width:0"
       d="m -46.347321,-75.211562 c 1.785529,-0.363523 3.120874,-1.936419 3.120874,-3.832427 v -5.600181 l -35.458943,6e-6 c -2.166867,0 -3.911732,-1.743968 -3.911732,-3.910835 v -19.124951 l -7.899405,-1.4e-4 c -2.166867,0 -3.911077,1.74441 -3.911077,3.91128 v 24.725126 c 0,2.166866 1.74421,3.910989 3.911077,3.910989 l 43.359004,-1.4e-5 c 0.270858,0 0.535127,-0.02692 0.790202,-0.07885 z"
       transform="scale(-1)" /><path
       id="front"
       style="fill:#222b36;stroke:#000000;stroke-width:0"
       transform="scale(-1)"
       d="m -74.210423,-120.34911 h 43.358796 c 2.166867,0 3.911312,1.74444 3.911312,3.91131 v 24.72478 c 0,2.166867 -1.744445,3.911312 -3.911312,3.911312 h -43.358796 c -2.166867,0 -3.911312,-1.744445 -3.911312,-3.911312 v -24.72478 c 0,-2.16687 1.744445,-3.91131 3.911312,-3.91131 z" /></g></svg>
